<svg width="11" height="12" viewBox="0 0 11 12" fill="none" xmlns="http://www.w3.org/2000/svg">
<path id="Vector" d="M5.49975 9.01996C5.62825 9.01996 5.73604 8.9765 5.82313 8.88958C5.91021 8.80265 5.95375 8.69495 5.95375 8.56646C5.95375 8.43796 5.91029 8.33017 5.82337 8.24308C5.73645 8.156 5.62874 8.11246 5.50025 8.11246C5.37175 8.11246 5.26396 8.15592 5.17688 8.24284C5.08979 8.32976 5.04625 8.43747 5.04625 8.56596C5.04625 8.69446 5.08971 8.80225 5.17663 8.88933C5.26356 8.97642 5.37126 9.01996 5.49975 9.01996ZM5.12875 6.91621H5.95375V3.43746H5.12875V6.91621ZM5.50366 11.77C4.74526 11.77 4.03255 11.6256 3.36553 11.3368C2.69851 11.0481 2.11521 10.6539 1.61563 10.1543C1.11604 9.65475 0.721875 9.0711 0.433125 8.40339C0.144375 7.73569 0 7.02226 0 6.26308C0 5.50391 0.144375 4.79047 0.433125 4.12277C0.721875 3.45506 1.11604 2.87371 1.61563 2.37871C2.11521 1.88371 2.69885 1.49183 3.36656 1.20308C4.03426 0.914333 4.7477 0.769958 5.50688 0.769958C6.26605 0.769958 6.97949 0.914333 7.64719 1.20308C8.3149 1.49183 8.89625 1.88371 9.39125 2.37871C9.88625 2.87371 10.2781 3.45579 10.5669 4.12496C10.8556 4.79413 11 5.50791 11 6.2663C11 7.0247 10.8556 7.7374 10.5669 8.40443C10.2781 9.07145 9.88625 9.65391 9.39125 10.1518C8.89625 10.6497 8.31417 11.0439 7.645 11.3343C6.97583 11.6247 6.26205 11.77 5.50366 11.77ZM5.50688 10.945C6.80396 10.945 7.90625 10.4889 8.81375 9.57683C9.72125 8.66475 10.175 7.56017 10.175 6.26308C10.175 4.966 9.72211 3.86371 8.81633 2.95621C7.91055 2.04871 6.8051 1.59496 5.5 1.59496C4.2075 1.59496 3.10521 2.04785 2.19313 2.95362C1.28104 3.85941 0.825 4.96485 0.825 6.26996C0.825 7.56246 1.28104 8.66475 2.19313 9.57683C3.10521 10.4889 4.20979 10.945 5.50688 10.945Z" fill="#4293DD"/>
</svg>
