<svg width="9" height="9" viewBox="0 0 9 9" fill="none" xmlns="http://www.w3.org/2000/svg">
<g id="editar">
<path id="Vector" d="M0.736699 8.2633H1.27694L6.71623 2.82401L6.17599 2.28377L0.736699 7.72306V8.2633ZM8.27558 2.29604L6.70396 0.72442L7.21965 0.208731C7.3588 0.0695771 7.5307 0 7.73533 0C7.93997 0 8.11187 0.0695771 8.25102 0.208731L8.79127 0.748977C8.93042 0.888131 9 1.06003 9 1.26467C9 1.4693 8.93042 1.6412 8.79127 1.78035L8.27558 2.29604ZM7.75989 2.81173L1.57162 9H0V7.42838L6.18827 1.24011L7.75989 2.81173ZM6.44611 2.55389L6.17599 2.28377L6.71623 2.82401L6.44611 2.55389Z" fill="white"/>
</g>
</svg>
