<svg width="25" height="25" viewBox="0 0 25 25" fill="none" xmlns="http://www.w3.org/2000/svg">
<g clip-path="url(#clip0_616_907)">
<path fill-rule="evenodd" clip-rule="evenodd" d="M25 12.5006C25 19.4045 19.4036 25.0012 12.5 25.0012C5.59644 25.0012 0 19.4045 0 12.5006C0 5.59671 5.59644 0 12.5 0C19.4036 0 25 5.59671 25 12.5006ZM13.7954 3.83698H16.5644H16.5658V6.82523C16.4072 6.82616 15.9356 6.82582 15.5039 6.82551C15.3022 6.82537 15.1092 6.82523 14.9608 6.82523C14.9588 6.82523 14.9556 6.82517 14.9515 6.82508C14.8353 6.82269 13.9225 6.80392 13.9225 7.71263C13.9284 8.09709 13.9225 9.42099 13.9225 9.42099H16.5766L16.3615 12.3971H13.9845V21.1633H10.3832V12.4546H8.42336V9.42948H10.3244C10.3244 9.12494 10.3253 8.83196 10.3262 8.54522C10.328 7.98965 10.3297 7.4575 10.3244 6.91008C10.3244 4.52811 12.1521 3.83698 13.7954 3.83698Z" fill="#807C83"/>
</g>
<defs>
<clipPath id="clip0_616_907">
<rect width="25" height="25.0012" fill="white"/>
</clipPath>
</defs>
</svg>
