<svg width="25" height="26" viewBox="0 0 25 26" fill="none" xmlns="http://www.w3.org/2000/svg">
<mask id="mask0_714_66" style="mask-type:luminance" maskUnits="userSpaceOnUse" x="0" y="0" width="25" height="26">
<path d="M24.7093 10.4651H12.7907V15.407H19.6512C19.0116 18.5465 16.3372 20.3488 12.7907 20.3488C8.60465 20.3488 5.23256 16.9767 5.23256 12.7907C5.23256 8.60465 8.60465 5.23256 12.7907 5.23256C14.593 5.23256 16.2209 5.87211 17.5 6.91862L21.2209 3.19767C18.9535 1.22093 16.0465 0 12.7907 0C5.69767 0 0 5.69767 0 12.7907C0 19.8837 5.69767 25.5814 12.7907 25.5814C19.186 25.5814 25 20.9302 25 12.7907C25 12.0349 24.8837 11.2209 24.7093 10.4651Z" fill="white"/>
</mask>
<g mask="url(#mask0_714_66)">
<path d="M-1.16275 20.3492V5.23291L8.72097 12.791L-1.16275 20.3492Z" fill="#807C83"/>
</g>
<mask id="mask1_714_66" style="mask-type:luminance" maskUnits="userSpaceOnUse" x="0" y="0" width="25" height="26">
<path d="M24.7093 10.4651H12.7907V15.407H19.6512C19.0116 18.5465 16.3372 20.3488 12.7907 20.3488C8.60465 20.3488 5.23256 16.9767 5.23256 12.7907C5.23256 8.60465 8.60465 5.23256 12.7907 5.23256C14.593 5.23256 16.2209 5.87211 17.5 6.91862L21.2209 3.19767C18.9535 1.22093 16.0465 0 12.7907 0C5.69767 0 0 5.69767 0 12.7907C0 19.8837 5.69767 25.5814 12.7907 25.5814C19.186 25.5814 25 20.9302 25 12.7907C25 12.0349 24.8837 11.2209 24.7093 10.4651Z" fill="white"/>
</mask>
<g mask="url(#mask1_714_66)">
<path d="M-1.16278 5.23275L8.72094 12.7909L12.7907 9.24439L26.7442 6.97694V-1.1626H-1.16278V5.23275Z" fill="#807C83"/>
</g>
<mask id="mask2_714_66" style="mask-type:luminance" maskUnits="userSpaceOnUse" x="0" y="0" width="25" height="26">
<path d="M24.7093 10.4651H12.7907V15.407H19.6512C19.0116 18.5465 16.3372 20.3488 12.7907 20.3488C8.60465 20.3488 5.23256 16.9767 5.23256 12.7907C5.23256 8.60465 8.60465 5.23256 12.7907 5.23256C14.593 5.23256 16.2209 5.87211 17.5 6.91862L21.2209 3.19767C18.9535 1.22093 16.0465 0 12.7907 0C5.69767 0 0 5.69767 0 12.7907C0 19.8837 5.69767 25.5814 12.7907 25.5814C19.186 25.5814 25 20.9302 25 12.7907C25 12.0349 24.8837 11.2209 24.7093 10.4651Z" fill="white"/>
</mask>
<g mask="url(#mask2_714_66)">
<path d="M-1.16278 20.349L16.2791 6.97694L20.8721 7.55833L26.7442 -1.1626V26.7444H-1.16278V20.349Z" fill="#807C83"/>
</g>
<mask id="mask3_714_66" style="mask-type:luminance" maskUnits="userSpaceOnUse" x="0" y="0" width="25" height="26">
<path d="M24.7093 10.4651H12.7907V15.407H19.6512C19.0116 18.5465 16.3372 20.3488 12.7907 20.3488C8.60465 20.3488 5.23256 16.9767 5.23256 12.7907C5.23256 8.60465 8.60465 5.23256 12.7907 5.23256C14.593 5.23256 16.2209 5.87211 17.5 6.91862L21.2209 3.19767C18.9535 1.22093 16.0465 0 12.7907 0C5.69767 0 0 5.69767 0 12.7907C0 19.8837 5.69767 25.5814 12.7907 25.5814C19.186 25.5814 25 20.9302 25 12.7907C25 12.0349 24.8837 11.2209 24.7093 10.4651Z" fill="white"/>
</mask>
<g mask="url(#mask3_714_66)">
<path d="M26.7442 26.7445L8.72097 12.791L6.39539 11.0469L26.7442 5.23291V26.7445Z" fill="#807C83"/>
</g>
</svg>
