<svg width="122" height="47" viewBox="0 0 122 47" fill="none" xmlns="http://www.w3.org/2000/svg">
<path d="M106.264 42.479L110.33 40.5202C110.595 41.2765 111.1 41.9253 111.768 42.3673C112.436 42.8094 113.231 43.0203 114.031 42.9678C115.82 42.9678 116.997 42.0293 116.997 40.5605C116.997 38.8057 115.208 38.3157 113.093 37.7854C110.084 37.0106 106.709 36.1125 106.709 31.42C106.709 27.5842 109.758 24.8945 114.15 24.8945C115.637 24.8 117.117 25.1641 118.39 25.9378C119.663 26.7114 120.668 27.8572 121.269 29.2203L117.202 31.1792C117.059 30.4566 116.659 29.8103 116.076 29.3602C115.492 28.9101 114.766 28.6868 114.031 28.7315C112.404 28.7315 111.387 29.5881 111.387 30.9348C111.387 32.648 113.176 33.0965 115.25 33.6268C118.098 34.3613 121.676 35.2594 121.676 39.9922C121.676 44.1543 118.627 46.806 113.868 46.806C110.29 46.8096 107.402 45.177 106.264 42.479ZM40.0169 46.7681C39.2243 46.7696 38.4337 46.6877 37.6582 46.5237C36.827 46.3753 36.0199 46.1142 35.2592 45.7477C32.8103 44.5798 30.8826 42.5439 29.8501 40.0349C29.004 38.0285 28.7842 35.8132 29.2198 33.6797C29.6553 31.5462 30.7258 29.5943 32.2907 28.0801C33.3221 27.055 34.5475 26.2456 35.8953 25.6992C37.243 25.1528 38.6861 24.8805 40.1403 24.8981C42.1463 24.8856 44.1215 25.3916 45.8744 26.3669C47.5266 27.2949 48.8593 28.7012 49.6972 30.4009L45.5446 32.3597C45.0494 31.3805 44.2888 30.5603 43.3496 29.9927C42.3641 29.4188 41.2361 29.1358 40.0964 29.1764C39.2324 29.1772 38.3765 29.3436 37.5751 29.6664C36.7942 29.9782 36.0876 30.4507 35.5012 31.0534C34.9209 31.6752 34.4528 32.393 34.1178 33.1748C33.4345 34.8452 33.4201 36.7145 34.0775 38.3952C34.3799 39.1914 34.8375 39.9197 35.4237 40.5376C36.0099 41.1555 36.7129 41.6509 37.4921 41.9949C37.6546 42.0365 37.7768 42.1136 37.9394 42.1575L38.8743 42.4019C39.6989 42.5671 40.5483 42.5656 41.3723 42.3975C42.1963 42.2294 42.9784 41.8981 43.6724 41.4231C44.6546 40.71 45.3474 39.6672 45.6241 38.4854H38.1458L40.0169 34.6484V34.6069H50.5087C50.5564 35.5994 50.5429 36.594 50.4684 37.5849C50.3447 38.5771 50.0988 39.5503 49.7364 40.4822C49.2343 41.7265 48.4854 42.8561 47.5347 43.8029C46.584 44.7497 45.4514 45.494 44.2051 45.9909C42.9604 46.494 41.6322 46.758 40.2898 46.7692C40.1972 46.7716 40.1023 46.7704 40.0169 46.7681ZM81.2534 46.1974L71.2872 32.2838V46.1974H66.8973V27.0954L65.8805 25.0143H71.5755L81.4231 39.1332V25.0143H85.8557V46.1974H81.2534ZM52.3039 46.1974V25.0203H64.8234V29.1408H56.8527V33.4263H64.1328L63.0342 37.4247H56.8527V42.0756L64.8234 42.1171V46.1974H52.3039ZM15.5818 46.1974V25.0203H28.1416V29.1408H20.1698V33.4263H27.4499L26.3512 37.4247H20.1698V42.0756L28.1404 42.1171V46.1974H15.5818ZM0 46.1974L1.05832 43.9941V27.1464L0 24.9396H5.61195V42.0365H14.0299L12.8505 46.1986L0 46.1974ZM87.8822 46.157V24.9799H95.0804C96.5158 25.0546 97.93 25.3578 99.2698 25.8781C100.548 26.4116 101.719 27.1721 102.726 28.1229C104.258 29.5985 105.301 31.5078 105.716 33.5942C106.13 35.6805 105.896 37.8437 105.044 39.7929C104.507 41.0541 103.718 42.1926 102.726 43.1387C100.658 45.0866 97.9214 46.1669 95.0804 46.157H87.8822ZM92.4785 41.9546H94.9998C95.838 41.9578 96.6682 41.7911 97.4403 41.4646C98.9286 40.8154 100.109 39.6168 100.735 38.1188C101.387 36.5218 101.387 34.7327 100.735 33.1356C100.437 32.3862 99.9921 31.704 99.4262 31.1294C98.8603 30.5547 98.1851 30.0993 97.4403 29.7898C96.6681 29.4638 95.8379 29.2975 94.9998 29.301H92.4773L92.4785 41.9546ZM77.1068 21.3102C76.0979 20.9257 75.1928 20.311 74.4633 19.5151C73.7154 18.7171 73.1467 17.7685 72.7952 16.7329C72.3851 15.5672 72.1921 14.3363 72.2257 13.1011L72.3075 0.0488718H76.8612L76.8208 12.9018C76.7523 14.1086 77.0966 15.3029 77.7973 16.2879C78.1648 16.6759 78.6064 16.9864 79.0958 17.2011C79.5852 17.4158 80.1127 17.5303 80.6471 17.5379C81.1815 17.5456 81.712 17.4461 82.2074 17.2455C82.7028 17.0449 83.153 16.7471 83.5314 16.3698L83.6121 16.2879C84.3438 15.3165 84.7044 14.1156 84.6289 12.9018L84.6693 0.00378632H89.3059L89.2217 13.1877C89.2349 14.4215 89.0424 15.6489 88.6522 16.8195C88.2667 17.8459 87.6865 18.7882 86.9437 19.5946C86.1907 20.3703 85.2748 20.9692 84.2623 21.3482C83.127 21.7491 81.9319 21.9545 80.7278 21.9556C79.4915 21.9555 78.2651 21.7357 77.1056 21.3067L77.1068 21.3102ZM52.2991 18.617C51.2997 17.6054 50.4995 16.4149 49.9404 15.1074C49.3703 13.7642 49.08 12.3189 49.0871 10.8598C49.0943 9.40061 49.3987 7.95822 49.9819 6.62067C50.5464 5.31849 51.3615 4.1401 52.381 3.15265C53.3924 2.14772 54.595 1.35578 55.9178 0.823629C57.2789 0.243282 58.7491 -0.0363697 60.2282 0.00378632C62.2379 -0.0228104 64.2185 0.485343 65.9671 1.47618C67.6109 2.41759 68.9406 3.82282 69.7899 5.51607L65.6373 7.47373C65.1418 6.49402 64.3808 5.6734 63.4411 5.10556C62.4477 4.5501 61.3246 4.26841 60.1867 4.28928C59.3223 4.28622 58.4658 4.4527 57.6655 4.77928C56.895 5.10552 56.202 5.59067 55.6319 6.20303C55.0386 6.81441 54.5693 7.53477 54.2496 8.32442C53.5657 9.98153 53.5512 11.8393 54.2093 13.5069C54.8345 15.1043 56.0607 16.3932 57.6251 17.0971C58.4246 17.4752 59.3028 17.657 60.1867 17.6274C61.4928 17.6591 62.775 17.2734 63.8469 16.5264C64.8289 15.8131 65.5216 14.7704 65.7986 13.5887H58.2765L60.1475 9.75292H70.6406C70.6809 10.5692 70.6406 12.324 70.599 12.6906C70.4754 13.6829 70.2296 14.656 69.867 15.5879C69.365 16.8322 68.616 17.9618 67.6654 18.9086C66.7147 19.8554 65.582 20.5997 64.3357 21.0967C62.3072 21.9151 60.0819 22.1153 57.9399 21.6719C55.7979 21.2286 53.8349 20.1615 52.2979 18.6051L52.2991 18.617ZM103.865 21.3102H91.3395V0.129551H103.905V4.25131H95.9347V8.53561H103.214L102.116 12.534H95.9347V17.1446L103.905 17.1861V21.3078L103.865 21.3102ZM15.5758 21.3102V0.129551H28.1416V4.25131H20.1698V8.53561H27.4499L26.3512 12.534H20.1698V17.1446L28.1404 17.1861V21.3078L15.5758 21.3102ZM45.9492 21.3102L44.3225 17.1896H35.8631L34.2768 21.3102H29.6057L37.0887 2.82281L35.7065 0.0488718H42.213L50.7128 21.3078L45.9492 21.3102ZM37.4067 13.1497H42.8157L40.1794 6.00608L37.4067 13.1497ZM0 21.3067L1.05832 19.1058V2.25806L0 0.0488718H5.61195V17.1457H14.0299L12.8505 21.3078L0 21.3067ZM105.288 10.7389C105.296 9.76418 105.592 8.81369 106.139 8.00696C106.686 7.20024 107.46 6.57332 108.362 6.20507C109.265 5.83682 110.256 5.74369 111.211 5.9374C112.166 6.1311 113.043 6.603 113.731 7.29371C114.418 7.98442 114.887 8.86309 115.076 9.81919C115.266 10.7753 115.168 11.7661 114.796 12.667C114.424 13.5679 113.794 14.3386 112.985 14.8822C112.176 15.4258 111.224 15.718 110.249 15.722H110.176C108.867 15.7085 107.617 15.1762 106.701 14.2418C105.784 13.3075 105.276 12.0476 105.288 10.7389ZM107.606 10.7792C107.608 11.3017 107.764 11.8119 108.055 12.2455C108.347 12.6792 108.76 13.0167 109.243 13.2155C109.727 13.4143 110.258 13.4655 110.77 13.3625C111.282 13.2596 111.753 13.0072 112.121 12.6372C112.49 12.2671 112.741 11.7961 112.843 11.2836C112.944 10.771 112.891 10.2399 112.691 9.75739C112.49 9.27485 112.152 8.8625 111.717 8.5724C111.283 8.2823 110.772 8.12747 110.249 8.12747C109.901 8.12731 109.557 8.19585 109.236 8.32916C108.914 8.46247 108.622 8.65792 108.377 8.9043C108.131 9.15067 107.937 9.44313 107.804 9.76487C107.672 10.0866 107.605 10.4313 107.606 10.7792ZM116.186 15.4278V5.92422H122V8.08713H118.545V10.1278H121.554L120.984 12.2089H118.545V15.4278H116.186Z" fill="white"/>
</svg>
