<svg width="122" height="51" viewBox="0 0 122 51" fill="none" xmlns="http://www.w3.org/2000/svg">
<path d="M60.8681 0.133322C61.6754 -0.146396 62.5572 0.087115 63.297 0.451987C63.814 0.784816 64.3309 1.12119 64.9098 1.33894C64.9541 1.42215 65.0461 1.58679 65.0904 1.66823C65.0674 1.72311 65.0231 1.83641 65.0001 1.8913C65.4126 2.82959 65.6764 3.94138 65.2763 4.9273C65.0036 5.26012 64.5292 5.31164 64.145 5.44053C64.1432 5.91675 64.2194 6.38785 64.2601 6.86054C65.0815 6.99331 65.7769 6.42148 66.5895 6.47814C66.6993 6.02315 66.786 5.56073 66.9316 5.11478C67.0998 5.41043 67.1067 5.75052 67.1086 6.08334C67.3211 6.14354 67.537 6.19842 67.7544 6.25135C67.7566 6.33297 67.7582 6.49584 67.7582 6.57728C71.3201 6.59852 74.8802 6.56117 78.4423 6.59675C78.4335 6.71855 78.4161 6.96304 78.409 7.08537C78.5011 7.08537 78.6888 7.08714 78.7822 7.08714C78.7787 6.43937 78.7822 5.78946 78.7805 5.14169C78.8707 5.13797 79.0478 5.13266 79.1363 5.13089C79.1384 5.64075 79.14 6.15062 79.1453 6.66066C79.223 6.75626 79.3788 6.94728 79.4571 7.04288C79.5155 6.97366 79.6322 6.8377 79.6904 6.76848C79.9613 7.02182 79.8073 7.36881 79.7952 7.68004C80.7919 7.66924 81.7989 7.73651 82.7925 7.65508C82.8668 7.60019 83.0155 7.4922 83.0899 7.4375C83.2264 7.49043 83.3643 7.54372 83.5006 7.5986C83.9485 7.58763 84.3982 7.58621 84.8479 7.58444C84.8386 7.81636 84.8316 8.0481 84.8227 8.28019C84.2438 8.27116 83.6631 8.25895 83.0931 8.35791C82.7248 8.04119 82.2309 8.14175 81.7865 8.12971C81.1032 8.16158 80.3982 8.04119 79.7365 8.25877C79.3431 8.36853 78.9115 8.34216 78.5645 8.11891C78.4809 8.32605 78.6087 8.78988 78.2596 8.772C76.8858 8.78988 75.5138 8.75978 74.1417 8.78103C73.9541 8.88017 73.7647 8.974 73.5773 9.06588C73.3791 9.65718 72.8108 10.0518 72.3271 10.413C72.2669 11.3212 72.6263 12.1692 72.7662 13.0506C72.4953 13.1283 72.2227 13.2084 71.9553 13.2969C71.5712 14.2033 71.8066 15.4406 70.9179 16.073C70.2363 16.4694 69.7852 17.3315 68.8661 17.1954C69.3334 17.5849 68.7386 17.4627 68.8005 17.1511C67.1382 17.0042 65.7378 16.0287 64.2932 15.2854C64.2259 15.6924 64.1199 16.0926 64.0099 16.491C64.5587 16.5954 65.012 16.9991 65.1093 17.562C65.2846 18.7891 64.9341 20.0073 64.9394 21.2375C64.9783 21.9598 64.6685 22.6218 64.2826 23.2113C63.9444 23.5937 63.4116 23.2005 63.0061 23.144C62.9139 23.3228 62.8238 23.5018 62.7353 23.6822C62.8503 24.1636 62.8999 24.6646 63.061 25.1355C63.9657 26.1358 64.7889 27.2194 65.4209 28.4144C66.0715 29.7677 66.6513 31.1539 67.1578 32.5675C67.2072 32.8421 67.4657 32.9407 67.6926 33.0402C67.7227 33.3234 67.7528 33.6063 67.7812 33.8933C67.8697 34.0226 67.96 34.1516 68.052 34.2826C68.1069 36.0284 67.8927 37.7667 67.6215 39.4893C67.4537 40.2666 67.9083 41.0259 67.7242 41.8084C67.7454 42.2091 67.4696 42.5116 67.34 42.8657C67.3152 43.6925 67.2745 44.5297 67.3651 45.355C67.4285 45.9605 67.9405 46.3498 68.2875 46.8014C68.6664 47.2035 68.9832 47.7432 69.5568 47.8865C70.0968 48.0476 70.612 48.2813 71.0879 48.5877C71.233 48.9469 71.2065 49.3279 71.1374 49.7011C70.1 49.8923 69.0413 49.7969 67.9933 49.813C67.1856 49.8553 66.4654 49.4216 65.6808 49.3311C64.9213 49.312 63.9954 49.6889 63.4116 49.0091C63.659 48.0658 63.6789 47.0528 64.1317 46.1728C64.2769 45.1762 64.0011 44.1652 64.0592 43.1596C63.9728 43.087 63.7989 42.9418 63.7122 42.8689C63.7745 42.2123 63.4503 41.6279 63.3421 40.9996C63.2717 40.082 63.1881 39.1653 63.0819 38.2518C62.9987 37.8074 63.2288 37.4004 63.5422 37.1048C63.5705 36.5914 63.6399 36.0831 63.6891 35.5734C63.613 35.2422 63.3492 34.9963 63.1793 34.713C62.611 34.9524 61.8444 34.8389 61.5063 34.2826C60.7045 33.0896 59.9041 31.8963 59.0933 30.71C58.7746 30.689 58.4382 30.7224 58.1408 30.5949C57.7977 30.2428 57.6186 29.7737 57.3994 29.3452C57.0859 29.6975 57.1087 30.2373 56.7373 30.5579C55.9512 31.3123 55.7423 32.4206 55.3316 33.387C55.0168 34.0135 55.1939 34.7695 54.843 35.3804C54.6553 35.7095 54.1844 35.775 54.0605 36.1507C53.8976 36.5558 53.7064 36.9755 53.3258 37.222C52.9133 37.4925 52.8037 38.0062 52.6198 38.4308C52.4516 38.8222 52.7012 39.2327 52.6428 39.6348C52.3808 40.9114 51.5682 41.9788 51.2265 43.2288C51.0707 43.7918 50.8474 44.4256 50.1924 44.5458C49.4471 45.8771 49.0365 47.506 49.4579 49.005C49.7164 49.4759 49.7022 50.0052 49.6225 50.524C48.4383 50.6162 47.2237 50.7754 46.0607 50.4445C45.7881 49.9043 45.827 49.2688 45.8837 48.6851C46.2429 47.1498 46.7193 45.6416 47.0112 44.0908C46.6465 43.7668 46.7317 43.2713 46.7386 42.8374C46.7264 42.0283 47.2768 41.3804 47.6592 40.7165C47.8028 40.0349 47.7355 39.3025 48.0876 38.677C48.5021 37.8945 48.8524 37.0485 49.4917 36.4163C49.6137 35.8586 50.0248 35.4374 50.1908 34.9005C50.3678 34.426 50.058 33.9445 50.1203 33.4596C50.2724 31.9881 50.5399 30.5312 50.7718 29.0707C50.333 28.7042 50.4744 28.1219 50.3346 27.6278C50.4036 27.4331 50.4904 27.2474 50.5948 27.0666C50.485 26.9657 50.3772 26.863 50.2673 26.7623C50.3735 26.243 50.3434 25.3136 51.1401 25.4823C51.1897 23.7633 50.593 22.0991 50.7931 20.3782C50.8993 20.5019 51.0036 20.6278 51.11 20.7535L51.0533 20.171C51.3862 19.994 51.7402 19.8577 52.112 19.7886C51.5065 19.7091 50.917 19.5551 50.3236 19.4169C50.1802 19.0396 50.2602 18.6379 50.313 18.252C50.5431 16.949 50.6281 15.6283 50.6759 14.3076C51.3469 14.0742 52.0869 14.2724 52.7419 13.9606C52.5387 12.3088 52.4873 10.5847 53.0747 9.00002C53.5474 7.65083 54.4505 6.34961 55.8595 5.87533C56.5252 5.71617 57.3626 5.53719 57.8331 6.18337C57.9624 6.06476 58.0916 5.9426 58.2208 5.82399C57.1464 3.68999 58.4299 0.572372 60.8681 0.133322ZM69.4666 9.3888C69.1833 9.56229 68.9054 9.76075 69.2031 10.0759C69.058 10.1624 68.9124 10.2458 68.7655 10.3253C68.5353 10.5024 68.0184 10.6031 68.0786 10.9611C68.3372 11.3762 68.5599 11.8127 68.7444 12.2656C69.309 11.802 69.7587 11.1785 70.0632 10.5185C70.1269 10.453 70.2563 10.322 70.3199 10.258C70.2915 9.95531 70.2243 9.65948 70.1057 9.37994C69.8932 9.38366 69.679 9.38703 69.4666 9.3888Z" fill="white"/>
<path d="M74.661 25.2371C75.4716 24.214 76.7817 23.6473 78.081 23.6686C82.0342 23.6723 85.9892 23.6668 89.9424 23.6703C91.8707 23.7111 93.7507 25.2178 93.9737 27.176C88.5015 27.1578 83.0308 27.1919 77.5607 27.1578C77.5554 30.8191 77.5483 34.482 77.5607 38.145C81.76 38.1381 85.9589 38.1309 90.1586 38.1486C90.1425 36.8367 90.1636 35.5249 90.1462 34.2132C88.0697 34.2251 85.9929 34.2292 83.9163 34.2132C82.2505 34.1493 81.0113 32.7102 80.6362 31.177C85.101 31.1611 89.5641 31.1593 94.0286 31.1788C94.0095 33.4219 94.0396 35.6669 94.0127 37.9099C93.9596 39.7989 92.3346 41.4615 90.472 41.6509C86.1647 41.6509 81.8556 41.6491 77.5483 41.6491C76.2612 41.6399 75.1229 40.8273 74.397 39.8131C73.9013 39.0959 73.7896 38.2056 73.719 37.3609C73.7119 34.3513 73.7225 31.3399 73.7153 28.3303C73.7316 27.2394 73.9245 26.0871 74.661 25.2371ZM100.779 23.7923C101.224 23.6719 101.687 23.6633 102.146 23.6686C105.8 23.6795 109.456 23.6563 113.11 23.6774C115.181 23.7659 117.001 25.5544 117.081 27.6324C117.085 30.991 117.085 34.351 117.081 37.7115C117.044 39.7702 115.22 41.6893 113.13 41.6541C109.111 41.6364 105.092 41.6665 101.073 41.6399C99.0692 41.4168 97.5308 39.5033 97.5166 37.522C97.4883 34.4591 97.5201 31.3928 97.5007 28.3303C97.4847 27.4274 97.6476 26.4997 98.1256 25.7208C98.6866 24.7416 99.6922 24.0563 100.779 23.7923ZM101.409 27.0608C101.417 30.8387 101.394 34.6183 101.42 38.3962C105.345 38.407 109.272 38.3945 113.197 38.4012C113.209 34.6201 113.199 30.8384 113.202 27.0549C109.272 27.0535 105.34 27.0466 101.409 27.0608ZM0.0062453 27.9601C0.0896295 25.9118 1.80494 23.9872 3.8922 23.9076C7.79214 23.9038 11.694 23.9038 15.5943 23.9093C17.7011 23.8883 19.4558 25.7914 19.6148 27.8326C19.3333 27.8558 19.0518 27.8732 18.7704 27.8769C14.1267 27.8718 9.48302 27.8787 4.84094 27.8732C4.83899 31.1731 4.82164 34.4729 4.84979 37.7731C9.77867 37.7658 14.7056 37.7623 19.6343 37.775C19.4944 39.8903 17.7133 41.7674 15.5662 41.8504C12.0325 41.9002 8.49887 41.8522 4.96504 41.8736C4.08517 41.9037 3.17874 41.7938 2.38579 41.3919C1.01907 40.6928 0.0522748 39.2674 0.004829 37.7201C0.000934197 34.4662 -0.0043769 31.2139 0.0062453 27.9601ZM23.368 26.3562C24.0177 24.9379 25.5048 23.8847 27.0877 23.904C30.9825 23.9077 34.8791 23.904 38.7758 23.9058C40.8098 23.9182 42.6014 25.699 42.745 27.7087C37.6072 27.7813 32.4661 27.7192 27.3269 27.7388C27.3037 28.7727 27.3145 29.8066 27.3127 30.8421C31.1332 30.8543 34.9554 30.8456 38.7758 30.8456C39.9087 30.8899 41.0986 31.253 41.8703 32.1291C42.7376 32.9047 43.1042 34.0856 43.1325 35.2222C43.1518 36.357 43.1518 37.4972 42.9677 38.6211C42.5464 40.4412 40.8061 41.7973 38.9492 41.8557C35.2351 41.8909 31.5188 41.8593 27.8047 41.8734C26.9286 41.8913 26.0221 41.7654 25.2448 41.3388C24.0126 40.6959 23.1274 39.4032 23.0054 38.0156C28.2351 38.0408 33.4665 38.0315 38.6962 38.0193C38.7086 36.9178 38.7015 35.8168 38.7015 34.7158C34.8315 34.6893 30.9597 34.7121 27.0877 34.7049C24.8625 34.7227 22.8939 32.6778 22.9537 30.4597C23.0316 29.093 22.7167 27.6255 23.368 26.3562ZM118.29 24.2724C118.782 24.26 119.28 24.2406 119.77 24.3149C119.542 24.3733 119.309 24.4034 119.076 24.407C119.046 24.94 119.042 25.4729 119.049 26.0054C118.998 26.0054 118.897 26.0054 118.848 26.0072C118.851 25.4602 118.856 24.9131 118.849 24.3679C118.711 24.3788 118.437 24.4034 118.301 24.4139L118.29 24.2724ZM120.046 24.2526C120.151 24.2581 120.363 24.2687 120.469 24.274C120.62 24.7536 120.797 25.2245 121.016 25.6795C121.222 25.221 121.356 24.7322 121.583 24.2864C121.682 24.2723 121.88 24.2422 121.979 24.228C121.924 24.8795 122.149 25.6 121.797 26.1931C121.733 25.616 121.76 25.0351 121.723 24.4562C121.453 24.9963 121.326 25.6034 120.974 26.1028C120.705 25.5896 120.59 25.005 120.268 24.5205C120.247 25.0374 120.257 25.5561 120.25 26.0745L120.06 26.0531C120.06 25.4533 120.051 24.8529 120.046 24.2526Z" fill="white"/>
</svg>
