<svg width="36" height="36" viewBox="0 0 36 36" fill="none" xmlns="http://www.w3.org/2000/svg">
<circle cx="18" cy="18" r="18" fill="#AC73FF" fill-opacity="0.15"/>
<g clip-path="url(#clip0_693_358)">
<path d="M18.2982 12.5562H16.7607V14.1119H18.2982V12.5562Z" fill="#AC73FF"/>
<path d="M19.8356 12.5562H18.2982V14.1119H19.8356V12.5562Z" fill="#AC73FF"/>
<path d="M21.3731 12.5562H19.8356V14.1119H21.3731V12.5562Z" fill="#AC73FF"/>
<path d="M16.7607 12.5562H15.2232V14.1119H16.7607V12.5562Z" fill="#AC73FF"/>
<path d="M15.2232 12.5562H13.6857V14.1119H15.2232V12.5562Z" fill="#AC73FF"/>
<path d="M12.1499 11H10.6124V12.5557H12.1499V11Z" fill="#AC73FF"/>
<path d="M10.6124 12.5562H9.07495V14.1119H10.6124V12.5562Z" fill="#AC73FF"/>
<path d="M9.07498 12.5562H7.53751V14.1119H9.07498V12.5562Z" fill="#AC73FF"/>
<path d="M7.53748 15.6675H6V17.2232H7.53748V15.6675Z" fill="#AC73FF"/>
<path d="M9.07498 14.1113H7.53751V15.6671H9.07498V14.1113Z" fill="#AC73FF"/>
<path d="M13.6857 14.1113H12.1482V15.6671H13.6857V14.1113Z" fill="#AC73FF"/>
<path d="M22.9106 14.1113H21.3731V15.6671H22.9106V14.1113Z" fill="#AC73FF"/>
<path d="M13.6857 15.6675H12.1482V17.2232H13.6857V15.6675Z" fill="#AC73FF"/>
<path d="M15.2232 15.6675H13.6857V17.2232H15.2232V15.6675Z" fill="#AC73FF"/>
<path d="M12.1499 15.6675H10.6124V17.2232H12.1499V15.6675Z" fill="#AC73FF"/>
<path d="M13.6857 17.2212H12.1482V18.7769H13.6857V17.2212Z" fill="#AC73FF"/>
<path d="M24.4464 14.1113H25.9839V12.5556H24.4464V14.1113Z" fill="#AC73FF"/>
<path d="M25.9839 14.1113H27.5213V12.5556H25.9839V14.1113Z" fill="#AC73FF"/>
<path d="M25.9839 15.666H27.5213V14.1103H25.9839V15.666Z" fill="#AC73FF"/>
<path d="M27.5214 17.2212H29.0588V15.6654H27.5214V17.2212Z" fill="#AC73FF"/>
<path d="M7.53748 17.2212H6V18.7769H7.53748V17.2212Z" fill="#AC73FF"/>
<path d="M7.53748 18.7769H6V20.3326H7.53748V18.7769Z" fill="#AC73FF"/>
<path d="M7.53748 20.3325H6V21.8883H7.53748V20.3325Z" fill="#AC73FF"/>
<path d="M7.53748 21.8887H6V23.4444H7.53748V21.8887Z" fill="#AC73FF"/>
<path d="M29.0588 17.2212H27.5213V18.7769H29.0588V17.2212Z" fill="#AC73FF"/>
<path d="M29.0588 18.7769H27.5213V20.3326H29.0588V18.7769Z" fill="#AC73FF"/>
<path d="M29.0588 20.3325H27.5213V21.8883H29.0588V20.3325Z" fill="#AC73FF"/>
<path d="M29.0588 21.8887H27.5213V23.4444H29.0588V21.8887Z" fill="#AC73FF"/>
<path d="M9.07498 23.4438H7.53751V24.9996H9.07498V23.4438Z" fill="#AC73FF"/>
<path d="M10.6124 23.4438H9.07495V24.9996H10.6124V23.4438Z" fill="#AC73FF"/>
<path d="M12.1499 23.4438H10.6124V24.9996H12.1499V23.4438Z" fill="#AC73FF"/>
<path d="M24.4464 23.4438H22.9089V24.9996H24.4464V23.4438Z" fill="#AC73FF"/>
<path d="M25.9839 23.4438H24.4464V24.9996H25.9839V23.4438Z" fill="#AC73FF"/>
<path d="M27.5214 23.4438H25.9839V24.9996H27.5214V23.4438Z" fill="#AC73FF"/>
<path d="M13.6857 21.8887H12.1482V23.4444H13.6857V21.8887Z" fill="#AC73FF"/>
<path d="M13.6857 20.3325H12.1482V21.8883H13.6857V20.3325Z" fill="#AC73FF"/>
<path d="M15.2232 20.3325H13.6857V21.8883H15.2232V20.3325Z" fill="#AC73FF"/>
<path d="M22.9106 17.2212H21.3731V18.7769H22.9106V17.2212Z" fill="#AC73FF"/>
<path d="M21.3731 15.6675H19.8356V17.2232H21.3731V15.6675Z" fill="#AC73FF"/>
<path d="M24.4464 15.6675H22.9089V17.2232H24.4464V15.6675Z" fill="#AC73FF"/>
<path d="M22.9106 20.3325H21.3731V21.8883H22.9106V20.3325Z" fill="#AC73FF"/>
<path d="M22.9106 21.8955H21.3731V23.4513H22.9106V21.8955Z" fill="#AC73FF"/>
<path d="M22.9106 11H21.3731V12.5557H22.9106V11Z" fill="#AC73FF"/>
<path d="M24.4464 11H22.9089V12.5557H24.4464V11Z" fill="#AC73FF"/>
<path d="M13.6857 21.8887H12.1482V23.4444H13.6857V21.8887Z" fill="#AC73FF"/>
<path d="M19.8356 18.7769H18.2982V20.3326H19.8356V18.7769Z" fill="#AC73FF"/>
<path d="M18.2982 18.7769H16.7607V20.3326H18.2982V18.7769Z" fill="#AC73FF"/>
<path d="M16.7607 18.7769H15.2232V20.3326H16.7607V18.7769Z" fill="#AC73FF"/>
<path d="M21.3731 20.3325H19.8356V21.8883H21.3731V20.3325Z" fill="#AC73FF"/>
<path d="M13.6857 11H12.1482V12.5557H13.6857V11Z" fill="#AC73FF"/>
</g>
<defs>
<clipPath id="clip0_693_358">
<rect width="23.0588" height="14" fill="white" transform="translate(6 11)"/>
</clipPath>
</defs>
</svg>
