<svg width="18" height="23" viewBox="0 0 18 23" fill="none" xmlns="http://www.w3.org/2000/svg">
<g id="notifica&#195;&#167;&#195;&#181;es">
<path id="ativo" d="M0 19.125V17.4375H2.3625V8.83125C2.3625 7.25625 2.82656 5.85469 3.75469 4.62656C4.68281 3.39844 5.90625 2.625 7.425 2.30625V1.49062C7.425 1.05937 7.57969 0.703125 7.88906 0.421875C8.19844 0.140625 8.56875 0 9 0C9.43125 0 9.80156 0.140625 10.1109 0.421875C10.4203 0.703125 10.575 1.05937 10.575 1.49062V2.30625C12.0937 2.625 13.3219 3.39844 14.2594 4.62656C15.1969 5.85469 15.6656 7.25625 15.6656 8.83125V17.4375H18V19.125H0ZM9 22.5C8.4 22.5 7.875 22.2797 7.425 21.8391C6.975 21.3984 6.75 20.8687 6.75 20.25H11.25C11.25 20.8687 11.0297 21.3984 10.5891 21.8391C10.1484 22.2797 9.61875 22.5 9 22.5Z" fill="white"/>
</g>
</svg>
