<svg width="25" height="26" viewBox="0 0 25 26" fill="none" xmlns="http://www.w3.org/2000/svg">
<path d="M12.4784 0C5.90039 0 0.511719 5.11836 0 11.6225L6.71133 14.4227C7.29736 14.017 7.99333 13.8001 8.70605 13.801C8.77266 13.801 8.83848 13.8028 8.90332 13.8064L11.8883 9.44023V9.3791C11.8883 6.75186 14.0064 4.61387 16.6103 4.61387C19.214 4.61387 21.3321 6.75186 21.3321 9.3791C21.3321 12.0063 19.214 14.1451 16.6103 14.1451C16.5741 14.1451 16.539 14.1442 16.503 14.1434L12.2459 17.2075C12.2486 17.2644 12.2504 17.3211 12.2504 17.377C12.2504 19.35 10.6603 20.9547 8.70605 20.9547C6.99063 20.9547 5.55537 19.7186 5.23105 18.0824L0.430664 16.0795C1.91729 21.3835 6.74639 25.2721 12.4784 25.2721C19.3942 25.2721 25 19.6141 25 12.636C25 5.65723 19.3942 0 12.4784 0ZM7.84687 19.173L6.30889 18.5316C6.58105 19.1046 7.05312 19.5839 7.6793 19.8471C9.03252 20.4164 10.593 19.7687 11.157 18.4019C11.4301 17.7447 11.4317 17.006 11.1615 16.3477C10.8912 15.6846 10.3804 15.1674 9.72539 14.8917C9.07402 14.6187 8.37666 14.6286 7.76396 14.862L9.35332 15.5251C10.3516 15.945 10.8236 17.1018 10.4074 18.1091C9.99209 19.1163 8.84512 19.593 7.84687 19.173ZM19.7567 9.3791C19.7567 7.62861 18.3449 6.20332 16.6105 6.20332C14.8753 6.20332 13.4635 7.62861 13.4635 9.3791C13.4635 11.1297 14.8753 12.5541 16.6105 12.5541C18.3449 12.5541 19.7567 11.1297 19.7567 9.3791ZM14.2519 9.37373C14.2519 8.05654 15.3104 6.98897 16.6151 6.98897C17.9206 6.98897 18.9792 8.05654 18.9792 9.37373C18.9792 10.6909 17.9206 11.7586 16.615 11.7586C15.3104 11.7586 14.2518 10.6909 14.2518 9.37383L14.2519 9.37373Z" fill="#807C83"/>
</svg>
