<svg width="3" height="15" viewBox="0 0 3 15" fill="none" xmlns="http://www.w3.org/2000/svg">
<path d="M1.12167 15C0.811391 15 0.546875 14.8895 0.328125 14.6685C0.109375 14.4476 0 14.182 0 13.8717C0 13.5614 0.110484 13.2969 0.331453 13.0781C0.552406 12.8594 0.818031 12.75 1.12833 12.75C1.43861 12.75 1.70312 12.8605 1.92188 13.0815C2.14062 13.3024 2.25 13.568 2.25 13.8783C2.25 14.1886 2.13951 14.4531 1.91855 14.6719C1.69759 14.8906 1.43197 15 1.12167 15ZM1.12167 8.625C0.811391 8.625 0.546875 8.51451 0.328125 8.29355C0.109375 8.07259 0 7.80697 0 7.49667C0 7.18639 0.110484 6.92188 0.331453 6.70312C0.552406 6.48438 0.818031 6.375 1.12833 6.375C1.43861 6.375 1.70312 6.48549 1.92188 6.70645C2.14062 6.92741 2.25 7.19303 2.25 7.50333C2.25 7.81361 2.13951 8.07812 1.91855 8.29688C1.69759 8.51562 1.43197 8.625 1.12167 8.625ZM1.12167 2.25C0.811391 2.25 0.546875 2.13952 0.328125 1.91855C0.109375 1.69759 0 1.43197 0 1.12167C0 0.811391 0.110484 0.546875 0.331453 0.328125C0.552406 0.109375 0.818031 0 1.12833 0C1.43861 0 1.70312 0.110484 1.92188 0.331453C2.14062 0.552406 2.25 0.818031 2.25 1.12833C2.25 1.43861 2.13951 1.70312 1.91855 1.92188C1.69759 2.14062 1.43197 2.25 1.12167 2.25Z" fill="#BDBBBE"/>
</svg>
